<svg xmlns="http://www.w3.org/2000/svg" viewBox="0 0 64 64">
  <rect width="64" height="64" rx="14" fill="#0B1320"/>
  <path d="M49 13.5 A24.5 24.5 0 1 0 57.5 32" fill="none" stroke="#2E86E0" stroke-width="5" stroke-linecap="round"/>
  <rect x="11" y="37" width="19" height="13" rx="1.5" fill="#1565C0"/>
  <path d="M17.3 37 v13 M23.7 37 v13 M11 41.3 h19 M11 45.7 h19" stroke="#0B1320" stroke-width="1.3"/>
  <rect x="36" y="27" width="15" height="23" rx="3" fill="#1E88E5"/>
  <rect x="40.5" y="23.5" width="6" height="4.5" rx="1" fill="#1E88E5"/>
  <path d="M45.5 31 l-7 10 h4.5 l-2.5 8 7.5 -11 h-4.5 z" fill="#4FC3F7"/>
  <polyline points="9,46 19,38 26,41 40,24" fill="none" stroke="#F5A623" stroke-width="3.5" stroke-linecap="round" stroke-linejoin="round"/>
  <circle cx="19" cy="38" r="2.4" fill="#FFC04D"/>
  <circle cx="26" cy="41" r="2.4" fill="#FFC04D"/>
  <path d="M40 24 L52 12 M44 12 h8 v8" fill="none" stroke="#4FC3F7" stroke-width="4" stroke-linecap="round" stroke-linejoin="round"/>
</svg>
